<?xml version="1.0" encoding="UTF-8"?><svg xmlns="http://www.w3.org/2000/svg" viewBox="0 0 1271.64 1230.75"><defs><style>.d{fill:#45c4b0;}</style></defs><g id="a"/><g id="b"><g id="c"><g><g><path class="d" d="M662.58,194.16H261.58c-9.64,0-17.45-7.81-17.45-17.45s7.81-17.45,17.45-17.45h401c9.64,0,17.45,7.81,17.45,17.45s-7.81,17.45-17.45,17.45Z"/><path class="d" d="M667.98,323.14H261.58c-9.64,0-17.45-7.81-17.45-17.45s7.81-17.45,17.45-17.45h406.4c9.64,0,17.45,7.81,17.45,17.45s-7.81,17.45-17.45,17.45Z"/><path class="d" d="M898.08,323.14h-139.65c-9.64,0-17.45-7.81-17.45-17.45s7.81-17.45,17.45-17.45h139.65c9.64,0,17.45,7.81,17.45,17.45s-7.81,17.45-17.45,17.45Z"/><path class="d" d="M515.62,452.11h-254.04c-9.64,0-17.45-7.81-17.45-17.45s7.81-17.45,17.45-17.45h254.04c9.64,0,17.45,7.81,17.45,17.45s-7.81,17.45-17.45,17.45Z"/><path class="d" d="M898.08,452.11h-313.58c-9.64,0-17.45-7.81-17.45-17.45s7.81-17.45,17.45-17.45h313.58c9.64,0,17.45,7.81,17.45,17.45s-7.81,17.45-17.45,17.45Z"/><path class="d" d="M637.13,581.09H261.58c-9.64,0-17.45-7.81-17.45-17.45s7.81-17.45,17.45-17.45h375.56c9.64,0,17.45,7.81,17.45,17.45s-7.81,17.45-17.45,17.45Z"/><path class="d" d="M898.79,581.09h-177.48c-9.64,0-17.45-7.81-17.45-17.45s7.81-17.45,17.45-17.45h177.48c9.64,0,17.45,7.81,17.45,17.45s-7.81,17.45-17.45,17.45Z"/><path class="d" d="M454.63,710.07h-193.05c-9.64,0-17.45-7.81-17.45-17.45s7.81-17.45,17.45-17.45h193.05c9.64,0,17.45,7.81,17.45,17.45s-7.81,17.45-17.45,17.45Z"/><path class="d" d="M898.79,710.07h-339.81c-9.64,0-17.45-7.81-17.45-17.45s7.81-17.45,17.45-17.45h339.81c9.64,0,17.45,7.81,17.45,17.45s-7.81,17.45-17.45,17.45Z"/><path class="d" d="M454.63,839.04h-193.05c-9.64,0-17.45-7.81-17.45-17.45s7.81-17.45,17.45-17.45h193.05c9.64,0,17.45,7.81,17.45,17.45s-7.81,17.45-17.45,17.45Z"/><path class="d" d="M898.79,839.04h-369.96c-9.64,0-17.45-7.81-17.45-17.45s7.81-17.45,17.45-17.45h369.96c9.64,0,17.45,7.81,17.45,17.45s-7.81,17.45-17.45,17.45Z"/><path class="d" d="M502.39,968.02h-240.81c-9.64,0-17.45-7.81-17.45-17.45s7.81-17.45,17.45-17.45h240.81c9.64,0,17.45,7.81,17.45,17.45s-7.81,17.45-17.45,17.45Z"/><path class="d" d="M898.79,968.02h-298.88c-9.64,0-17.45-7.81-17.45-17.45s7.81-17.45,17.45-17.45h298.88c9.64,0,17.45,7.81,17.45,17.45s-7.81,17.45-17.45,17.45Z"/></g><g><path class="d" d="M1039.43,1127.27H120.93c-9.64,0-17.45-7.81-17.45-17.45V17.45C103.48,7.82,111.29,0,120.93,0H872.67c9.64,0,17.45,7.81,17.45,17.45s-7.81,17.45-17.45,17.45H138.39V1092.37H1021.98l-.14-900.13c0-9.64,7.81-17.46,17.45-17.46,9.64,0,17.45,7.81,17.46,17.45l.14,917.59c0,4.63-1.84,9.07-5.11,12.34-3.27,3.27-7.71,5.11-12.34,5.11Z"/><path class="d" d="M935.95,1230.75H17.45c-9.64,0-17.45-7.81-17.45-17.45V120.94c0-9.64,7.81-17.45,17.45-17.45H120.93c9.64,0,17.45,7.81,17.45,17.45s-7.81,17.45-17.45,17.45H34.91V1195.85H918.49v-86.02c-.01-9.64,7.8-17.45,17.44-17.46,9.64,0,17.45,7.81,17.46,17.45v103.48c.02,4.63-1.82,9.07-5.1,12.34-3.27,3.27-7.71,5.11-12.34,5.11Z"/><path class="d" d="M1039.29,209.69h-166.62c-9.64,0-17.45-7.81-17.45-17.45V17.45c0-7.14,4.34-13.55,10.97-16.2,6.62-2.65,14.2-1,19.12,4.16l166.62,174.78c4.82,5.05,6.16,12.5,3.41,18.91-2.75,6.42-9.06,10.58-16.04,10.58Zm-149.17-34.91h108.42l-108.42-113.72v113.72Z"/></g></g><g><path class="d" d="M1254.07,877.98h0l-131.41-.03c-4.63,0-9.07-1.84-12.34-5.11-3.27-3.27-5.11-7.71-5.11-12.34l.12-614.94c0-9.64,7.82-17.45,17.45-17.45h0l131.41,.03c9.64,0,17.45,7.82,17.45,17.46l-.12,614.94c0,4.63-1.84,9.07-5.11,12.34-3.27,3.27-7.71,5.11-12.34,5.11Zm-113.96-34.93l96.51,.02,.11-580.03-96.5-.02-.11,580.03Z"/><path class="d" d="M1220.34,1024.55h-64.02c-8.13-.01-15.19-5.63-17.01-13.56l-33.67-146.58c-1.19-5.18,.05-10.62,3.36-14.78,3.31-4.16,8.34-6.58,13.65-6.58h0l131.41,.03c5.32,0,10.34,2.43,13.65,6.59,3.31,4.16,4.54,9.6,3.35,14.78l-33.72,146.57c-1.82,7.92-8.88,13.54-17.01,13.54Zm-50.12-34.92h36.23l25.69-111.65-87.57-.02,25.65,111.67Z"/><path class="d" d="M1232.28,263.03h0c-9.64,0-17.45-7.82-17.45-17.46v-35.38c0-7-2.74-13.59-7.74-18.58-5.29-5.3-12.28-8.05-19.67-7.75-13.94,.55-25.28,12.65-25.29,26.97v34.74c0,9.64-7.82,17.45-17.46,17.45h0c-9.64,0-17.45-7.82-17.45-17.46v-34.74c0-15.93,6.02-31.08,16.93-42.67,11.05-11.73,25.92-18.54,41.89-19.17,17.04-.66,33.68,5.87,45.74,17.96,11.58,11.56,17.97,26.93,17.96,43.27v35.38c0,9.64-7.82,17.45-17.46,17.45Z"/><path class="d" d="M1188.32,1081.82h0c-9.64,0-17.45-7.82-17.45-17.46v-57.28c.01-9.64,7.83-17.45,17.47-17.45h0c9.64,0,17.45,7.82,17.45,17.46v57.28c-.01,9.64-7.83,17.45-17.47,17.45Z"/><path class="d" d="M1254.16,375.92h0l-131.41-.03c-9.64,0-17.45-7.82-17.45-17.46,0-9.64,7.82-17.45,17.45-17.45h0l131.41,.03c9.64,0,17.45,7.82,17.45,17.46,0,9.64-7.82,17.45-17.45,17.45Z"/></g></g></g></svg>