<?xml version="1.0" encoding="UTF-8"?><svg xmlns="http://www.w3.org/2000/svg" viewBox="0 0 1419.23 1419.25"><defs><style>.d{fill:rgba(255, 0, 0, 0);}.e{fill:white;}</style></defs><g id="a"/><g id="b"><g id="c"><g><path class="d" d="M1350.68,709.63c0-354.05-287.01-641.07-641.06-641.07S68.55,355.58,68.55,709.63s287.02,641.05,641.06,641.05,641.06-287,641.06-641.05Z"/><path class="e" d="M709.62,0C318.34,0,0,318.35,0,709.61s318.34,709.63,709.62,709.63,709.61-318.33,709.61-709.63S1100.9,0,709.62,0Zm39.3,83.3c68.71,16.45,133.59,75.81,185.85,171.21,14.52,26.5,27.51,55.05,39.1,85.15-66.05,16.47-143.16,26.38-224.95,28.78V83.3Zm-78.61,285.15c-81.79-2.41-158.9-12.31-224.95-28.78,11.59-30.1,24.58-58.65,39.09-85.15,52.27-95.41,117.14-154.75,185.86-171.21V368.45Zm0,78.66v223.21H382.46c2.93-90.39,15.95-177.06,38.07-255.64,75.01,19.03,161.8,29.93,249.79,32.43Zm0,301.82v223.23c-87.99,2.5-174.78,13.39-249.79,32.43-22.12-78.58-35.14-165.25-38.07-255.66h287.86Zm0,301.88v285.13c-68.72-16.47-133.59-75.8-185.86-171.21-14.52-26.5-27.51-55.05-39.09-85.15,66.05-16.45,143.16-26.35,224.95-28.77Zm78.61,0c81.79,2.41,158.9,12.32,224.95,28.77-11.59,30.1-24.58,58.65-39.1,85.15-52.26,95.41-117.14,154.75-185.85,171.21v-285.13Zm0-78.65v-223.23h287.85c-2.93,90.42-15.95,177.09-38.06,255.66-75.02-19.05-161.8-29.93-249.79-32.43Zm0-301.84v-223.21c87.99-2.5,174.78-13.41,249.79-32.43,22.11,78.58,35.13,165.25,38.06,255.64h-287.85Zm254.79-453.55c-19.59-35.78-41.01-67.39-63.93-94.7,76.69,30.16,146.09,74.89,204.77,130.78-10.29,18.09-39.06,41.46-95.53,63.39-13.29-35.18-28.38-68.54-45.32-99.48Zm-588.19,0c-16.94,30.95-32.03,64.3-45.32,99.48-56.47-21.93-85.23-45.3-95.53-63.39,58.68-55.89,128.09-100.62,204.77-130.76-22.91,27.29-44.33,58.9-63.93,94.68Zm-70,174.56c-24.41,86.08-38.71,180.68-41.71,278.99H79.86c8.36-135.36,59.57-259.29,140.22-358.37,26.66,32.03,70.55,58.55,125.43,79.38Zm-41.71,357.61c3.01,98.31,17.31,192.92,41.71,279-54.88,20.82-98.77,47.34-125.43,79.38-80.66-99.08-131.86-223.02-140.22-358.38h223.94Zm66.4,354.07c13.29,35.18,28.38,68.56,45.32,99.48,19.59,35.78,41.01,67.39,63.93,94.7-76.68-30.16-146.09-74.89-204.78-130.79,10.3-18.09,39.06-41.44,95.53-63.39Zm633.51,99.48c16.95-30.92,32.03-64.27,45.32-99.48,56.47,21.95,85.23,45.3,95.53,63.39-58.68,55.9-128.09,100.63-204.78,130.79,22.92-27.31,44.34-58.92,63.93-94.7Zm70.01-174.55c24.4-86.07,38.7-180.68,41.7-279h223.95c-8.36,135.36-59.56,259.3-140.21,358.38-26.67-32.04-70.56-58.56-125.44-79.38Zm41.7-357.61c-3-98.31-17.3-192.91-41.7-278.99,54.88-20.82,98.77-47.35,125.44-79.38,80.65,99.08,131.86,223.02,140.21,358.37h-223.95Z"/></g></g></g></svg>