<?xml version="1.0" encoding="UTF-8"?><svg xmlns="http://www.w3.org/2000/svg" viewBox="0 0 927.49 862.62"><defs><style>.d{fill:black;}.e{fill:white;}.f{fill:white;}</style></defs><g id="a"/><g id="b"><g id="c"><path class="f" d="M287.54,682.33c0,14.69-11.77,26.6-26.3,26.6s-26.3-11.91-26.3-26.6,11.77-26.6,26.3-26.6,26.3,11.91,26.3,26.6Z"/><path class="d" d="M799.41,299.81c-58.12,0-105.24-47.12-105.24-105.24,0-11.06,1.73-21.71,4.89-31.72-1.63,.08-3.24,.25-4.89,.25-48.54,0-89.29-32.91-101.45-77.6-36.78-10.07-65.49-39.53-74.46-76.73C490.18,3.02,461.1,0,431.31,0,193.1,0,0,193.1,0,431.31s193.1,431.31,431.31,431.31,431.31-193.1,431.31-431.31c0-12.07-.62-23.99-1.6-35.81-36.32-16.59-61.61-53.15-61.61-95.68Z"/><ellipse class="e" cx="410.27" cy="213.9" rx="35.07" ry="38.57"/><ellipse class="e" cx="613.65" cy="340.14" rx="38.57" ry="28.05"/><ellipse class="e" cx="410.27" cy="568.07" rx="64.87" ry="43.83"/><ellipse class="d" cx="708.33" cy="568.07" rx="52.6" ry="40.33"/><ellipse class="d" cx="862.62" cy="175.33" rx="64.87" ry="57.86"/><ellipse class="d" cx="726.3" cy="28.93" rx="34.63" ry="28.93"/></g></g></svg>