<?xml version="1.0" encoding="UTF-8"?><svg xmlns="http://www.w3.org/2000/svg" viewBox="0 0 1472.12 1466.33"><defs><style>.d{fill:#9aeba3;fill-rule:evenodd;}</style></defs><g id="a"/><g id="b"><g id="c"><path class="d" d="M318.56,1466.33h109.28c13.86-11.1,22.53-24.74,24.9-40.45,14.21-94.77-123.18-150.76-43.29-280.13,101.79-164.8,399.14-29.25,273.61,174.67-36.73,59.64-72.36,112.94-30.91,145.92h320.85c32.1,0,58.36-26.26,58.36-58.36v-285.43c25.4-85.99,98-94.74,186.74-13.39v-1.2c25.75,18.19,56.12,29.01,88.74,29.01,91.31-.17,165.46-82.9,165.29-184.85,0-101.95-74.15-184.85-165.46-184.85-32.61,0-62.99,10.64-88.74,29.01v-4.98c-88.74,81.18-161.34,72.6-186.74-13.39V493.5c0-32.1-26.26-58.36-58.36-58.36h-252.48c-172.32-19.91-121.17-93.54-67.8-180.22C781.46,45.53,476.12-93.67,371.59,75.57c-82.04,132.85,59.04,190.34,44.45,287.66-5.66,37.59-46.34,63.68-108.13,71.92H58.36c-32.1,0-58.36,26.26-58.36,58.36v332.82c26.12-5.95,55.89-23.19,87.82-52.41v4.85c25.07-17.88,54.66-28.25,86.41-28.25,88.92,0,161.13,80.73,161.13,180.01,.17,99.28-72.04,179.85-160.96,180.01-31.76,0-61.34-10.53-86.41-28.25v1.17c-32-29.34-61.84-46.63-87.99-52.54v377.05c0,32.1,26.26,58.36,58.36,58.36H318.56Z"/></g></g></svg>