<?xml version="1.0" encoding="UTF-8"?><svg xmlns="http://www.w3.org/2000/svg" viewBox="0 0 453.83 552.05"><defs><style>.d{fill:#9aeba3;}</style></defs><g id="a"/><g id="b"><g id="c"><path class="d" d="M135.76,128.78h42.26v186.26h-42.26V128.78Zm135.73-1.39c-25.7,0-43.93,1.66-56.94,3.9v183.75h41.74v-66.6c3.9,.55,8.84,.85,14.38,.85,24.86,0,46.14-6.11,60.51-19.67,11.05-10.53,17.13-25.97,17.13-44.23s-8.05-33.67-19.89-43.08c-12.44-9.96-30.99-14.92-56.94-14.92Zm-1.15,89.52c-6.06,0-10.5-.27-14.08-1.12v-54.95c3.03-.82,8.84-1.66,17.43-1.66,20.98,0,32.88,10.23,32.88,27.34,0,19.07-13.83,30.39-36.23,30.39ZM226.91,0C101.58,0,0,101.58,0,226.89s226.91,325.16,226.91,325.16c0,0,226.91-199.82,226.91-325.13S352.25,0,226.91,0Zm.57,364.86c-83.21,0-150.66-67.47-150.66-150.71S144.3,63.49,227.49,63.49s150.66,67.47,150.66,150.66-67.44,150.71-150.66,150.71Z"/></g></g></svg>