<?xml version="1.0" encoding="UTF-8"?><svg xmlns="http://www.w3.org/2000/svg" viewBox="0 0 2080.96 2230.68"><defs><style>.d{fill:#9aeba3;}</style></defs><g id="a"/><g id="b"><g id="c"><g><path class="d" d="M1269.24,2032.76h-457.53c-22.83,0-41.33,18.5-41.33,41.33s18.5,41.33,41.33,41.33h457.53c22.83,0,41.33-18.5,41.33-41.33s-18.51-41.33-41.33-41.33Z"/><path class="d" d="M1040.48,2230.68c52.62,0,98.52-28.6,123.11-71.09h-246.22c24.59,42.48,70.49,71.09,123.11,71.09Z"/><path class="d" d="M1300.33,1900.03H780.63c-22.83,0-41.33,18.5-41.33,41.33s18.51,41.33,41.33,41.33h519.71c22.83,0,41.33-18.5,41.33-41.33s-18.51-41.33-41.33-41.33Z"/><path class="d" d="M1040.48,555.12c-297,0-537.77,240.77-537.77,537.77,0,117.43,37.65,226.06,101.53,314.49,71.44,98.9,111.03,217.23,111.03,339.23h0c0,37.77,30.62,68.39,68.39,68.39h513.64c37.77,0,68.39-30.62,68.39-68.39h0c0-122.01,39.59-240.33,111.03-339.23,63.88-88.43,101.53-197.06,101.53-314.49,0-297-240.77-537.77-537.77-537.77Zm-199.11,170.15c-2.35,1.91-4.8,3.65-7.05,5.67l-6.9,5.81c-1.14,.98-2.31,1.9-3.43,2.89l-3.33,3.01-6.66,5.97c-2.23,1.96-4.31,4.12-6.47,6.16l-6.42,6.15-6.18,6.39c-16.44,16.99-31.52,35.01-45.17,54-27.29,37.98-49.12,79.41-66.01,122.82-16.86,43.44-28.75,88.88-36.12,135.42-3.68,23.28-6.2,46.83-7.82,70.61l-.66,8.93-.39,8.95c-.29,5.98-.65,11.97-.75,17.97l-.25,9.02c-.1,3.01-.24,6.04-.21,9.05-.06,6.04-.12,12.09-.34,18.19-1.65-5.85-3.12-11.75-4.61-17.66-1.46-5.92-2.53-11.9-3.73-17.89-1.28-5.98-2.05-12.02-2.98-18.06-.46-3.02-.87-6.05-1.29-9.08l-.96-9.12c-2.51-24.35-3.07-48.99-1.78-73.61,2.76-49.21,13.11-98.32,31.07-144.67,17.93-46.32,43.62-89.91,76.55-127.14,16.51-18.55,34.85-35.45,54.79-49.99l7.51-5.38c2.56-1.72,5.14-3.4,7.73-5.06,2.61-1.63,5.13-3.37,7.8-4.9l8-4.57,3.99-2.26c1.34-.74,2.73-1.4,4.1-2.09l8.22-4.07c2.72-1.38,5.58-2.5,8.38-3.7,2.81-1.18,5.63-2.33,8.45-3.46-2.37,1.93-4.73,3.84-7.1,5.72Z"/><path class="d" d="M1040.48,363.58c18.26,0,33.06-14.8,33.06-33.06V33.06c0-18.26-14.8-33.06-33.06-33.06s-33.06,14.8-33.06,33.06V330.52c0,18.26,14.8,33.06,33.06,33.06Z"/><path class="d" d="M592.73,509.08c6.74,0,13.54-2.05,19.41-6.32,14.77-10.73,18.05-31.41,7.32-46.18l-174.84-240.64c-10.73-14.77-31.41-18.05-46.19-7.31-14.77,10.73-18.05,31.41-7.32,46.18l174.84,240.64c6.47,8.9,16.55,13.63,26.78,13.63Z"/><path class="d" d="M326.19,825.46L43.29,733.54c-17.36-5.64-36.02,3.86-41.66,21.23-5.64,17.37,3.86,36.02,21.23,41.66l282.89,91.92c3.4,1.1,6.84,1.63,10.22,1.63,13.94,0,26.9-8.88,31.44-22.86,5.64-17.37-3.86-36.02-21.23-41.66Z"/><path class="d" d="M305.75,1296.27L22.86,1388.19c-17.37,5.64-26.87,24.3-21.23,41.66,4.54,13.97,17.5,22.86,31.44,22.86,3.39,0,6.83-.52,10.22-1.63l282.89-91.92c17.37-5.64,26.87-24.3,21.23-41.66-5.64-17.37-24.29-26.87-41.66-21.23Z"/><path class="d" d="M2058.1,1388.19l-282.89-91.92c-17.36-5.64-36.02,3.86-41.67,21.23-5.64,17.37,3.86,36.02,21.23,41.66l282.89,91.92c3.4,1.1,6.84,1.63,10.22,1.63,13.94,0,26.9-8.88,31.44-22.86,5.64-17.37-3.86-36.02-21.23-41.66Z"/><path class="d" d="M1764.98,889.98c3.39,0,6.83-.52,10.22-1.63l282.89-91.92c17.37-5.64,26.87-24.3,21.23-41.66-5.64-17.37-24.29-26.87-41.66-21.23l-282.89,91.92c-17.37,5.64-26.87,24.3-21.23,41.66,4.54,13.97,17.5,22.86,31.44,22.86Z"/><path class="d" d="M1682.52,208.61c-14.78-10.73-35.45-7.46-46.19,7.31l-174.84,240.64c-10.73,14.77-7.46,35.45,7.32,46.18,5.87,4.26,12.67,6.32,19.41,6.32,10.22,0,20.31-4.73,26.78-13.63l174.84-240.64c10.73-14.77,7.46-35.45-7.32-46.18Z"/></g></g></g></svg>