<?xml version="1.0" encoding="UTF-8"?><svg xmlns="http://www.w3.org/2000/svg" viewBox="0 0 589 743"><defs><style>.d{fill:#fff;}</style></defs><g id="a"/><g id="b"><g id="c"><g><path class="d" d="M522.5,481h-.08c41.61-50.79,66.58-115.72,66.58-186.5C589,131.85,457.15,0,294.5,0S0,131.85,0,294.5c0,70.78,24.97,135.71,66.58,186.5h-.08l1.7,1.95c2.78,3.33,5.62,6.61,8.54,9.81l217.76,250.24,217.76-250.24c2.92-3.2,5.76-6.48,8.54-9.81l1.7-1.95ZM294.5,114c91.68,0,166,74.32,166,166s-74.32,166-166,166-166-74.32-166-166S202.82,114,294.5,114Z"/><path class="d" d="M589,294.5C589,131.85,457.15,0,294.5,0V114c91.68,0,166,74.32,166,166s-74.32,166-166,166v297l217.76-250.24c2.92-3.2,5.76-6.48,8.54-9.81l1.7-1.95h-.08c41.61-50.79,66.58-115.72,66.58-186.5Z"/></g></g></g></svg>