<?xml version="1.0" encoding="UTF-8"?><svg xmlns="http://www.w3.org/2000/svg" viewBox="0 0 1593.9 1592.38"><defs><style>.e{fill:#9aeba3;}</style></defs><g id="a"/><g id="b"><g id="c"><g id="d"><path class="e" d="M1142.43,594.7c20.52,30.03,38.01,62.06,52.29,95.85,28.66,67.74,43.19,139.77,43.19,214.11s-14.53,146.37-43.19,214.11c-27.69,65.49-67.37,124.36-117.94,174.93-50.57,50.57-109.44,90.25-174.93,117.95-67.74,28.66-139.77,43.19-214.11,43.19s-146.37-14.53-214.11-43.19c-65.49-27.69-124.34-67.37-174.93-117.95-50.57-50.57-90.25-109.44-117.95-174.93-28.66-67.74-43.19-139.77-43.19-214.11s14.53-146.37,43.19-214.11c27.69-65.49,67.37-124.34,117.95-174.93,50.59-50.57,109.44-90.25,174.93-117.95,67.74-28.66,139.77-43.19,214.11-43.19s146.37,14.53,214.11,43.19c33.29,14.08,64.85,31.25,94.49,51.35l98.6-98.6c-113.98-83.93-254.8-133.49-407.2-133.49C307.9,216.93,0,524.83,0,904.66s307.9,687.73,687.73,687.73,687.73-307.9,687.73-687.73c0-152.97-49.95-294.3-134.45-408.53l-98.57,98.57Z"/><path class="e" d="M687.73,629.57c37.25,0,73.36,7.36,106.69,21.37l102.2-102.2c-61.28-36.04-132.66-56.71-208.89-56.71-227.89,0-412.64,184.75-412.64,412.64s184.75,412.64,412.64,412.64,412.64-184.75,412.64-412.64c0-76.82-21-148.73-57.56-210.33l-102.04,102.04c14.47,33.77,22.05,70.45,22.05,108.29,0,73.47-28.61,142.57-80.58,194.51-51.95,51.97-121.04,80.58-194.51,80.58s-142.57-28.61-194.51-80.58c-51.97-51.95-80.58-121.04-80.58-194.51s28.61-142.57,80.58-194.51c51.95-51.97,121.04-80.58,194.51-80.58Z"/><path class="e" d="M756.85,785.76c-20.31-11.84-43.92-18.65-69.12-18.65-75.96,0-137.55,61.58-137.55,137.55s61.58,137.55,137.55,137.55,137.55-61.58,137.55-137.55c0-25.81-7.12-49.94-19.48-70.58l452.27-452.27,111.07,15.28,224.77-221.82-155.68-21.42L1416.73,0l-224.77,221.82,15.79,113.04-450.9,450.9Z"/></g></g></g></svg>