<?xml version="1.0" encoding="UTF-8"?><svg xmlns="http://www.w3.org/2000/svg" viewBox="0 0 949.57 1029"><defs><style>.d{fill:#9aeba3;}.e{fill:#45c4b0;}</style></defs><g id="a"/><g id="b"><g id="c"><g><path class="e" d="M475.07,33.37C213.01,33.37,.57,245.81,.57,507.87s212.44,474.5,474.5,474.5,474.5-212.44,474.5-474.5S737.13,33.37,475.07,33.37Zm195.49,257c52.74,0,95.49,42.23,95.49,94.32s-42.75,94.32-95.49,94.32-95.49-42.23-95.49-94.32,42.75-94.32,95.49-94.32Zm-200.94,39.23c52.74,0,95.49,42.23,95.49,94.32s-42.75,94.32-95.49,94.32-95.49-42.23-95.49-94.32,42.75-94.32,95.49-94.32Zm-202.35-38.58c52.74,0,95.49,42.23,95.49,94.32s-42.75,94.32-95.49,94.32-95.49-42.23-95.49-94.32,42.75-94.32,95.49-94.32ZM77.63,657.77c0-87.17,50.17-161.68,121-191.64,17.59,16.6,41.89,26.87,68.75,26.87s51.48-10.42,69.1-27.22c20.28,8.46,38.87,20.58,55.11,35.58-35.41,15.93-65.65,42.24-87.61,76.39-15.63,24.29-26.27,51.44-31.58,80.02H77.63Zm582.34,46.6H279.28v-9.13c0-40.72,11.66-79.88,33.71-113.24,21.64-32.74,51.72-57.72,86.99-72.23l5.85-2.41,4.59,4.21c15.64,14.37,36.47,22.28,58.65,22.28s43.27-8.01,58.95-22.56l4.56-4.24,5.86,2.38c35.49,14.4,65.78,39.36,87.58,72.19,22.22,33.44,33.96,72.73,33.96,113.62v9.13Zm6.15-46.6h-.69c-5.34-28.74-16.07-56.03-31.85-80.43-22.37-34.61-53.23-61.11-89.36-76.87v-.31c.9,.4,1.81,.79,2.71,1.19,16.18-15.1,34.73-27.32,54.98-35.89,17.59,16.6,41.9,26.87,68.75,26.87s51.48-10.42,69.1-27.22c71.28,29.73,121.85,104.47,121.85,191.99h-195.6c.04,.22,.08,.44,.12,.66Z"/><path class="d" d="M469.05,329.56c.73,0,1.46,.01,2.18,.03V33.35C210.67,35.1,0,246.86,0,507.83s210.67,472.73,471.23,474.48v-277.98h-192.53v-9.13c0-40.72,11.66-79.88,33.71-113.24,21.64-32.74,51.72-57.72,86.99-72.24l5.85-2.4,4.59,4.21c15.64,14.37,36.47,22.28,58.65,22.28,.92,0,1.83-.01,2.74-.04v-15.59c-.72,.02-1.45,.03-2.18,.03-52.74,0-95.49-42.23-95.49-94.32s42.75-94.33,95.49-94.33Zm-202.34-38.57c52.73,0,95.49,42.23,95.49,94.32s-42.76,94.32-95.49,94.32-95.5-42.23-95.5-94.32,42.76-94.32,95.5-94.32Zm124.31,210.33c-35.41,15.93-65.65,42.24-87.61,76.39-15.63,24.3-26.27,51.44-31.58,80.02H77.06c0-87.17,50.17-161.68,121.01-191.64,17.58,16.6,41.89,26.87,68.74,26.87s51.49-10.42,69.1-27.22c20.28,8.46,38.87,20.58,55.11,35.58Z"/></g></g></g></svg>