<?xml version="1.0" encoding="UTF-8"?><svg xmlns="http://www.w3.org/2000/svg" viewBox="0 0 1282.66 566.71"><defs><style>.d{fill:#dafdba;}</style></defs><g id="a"/><g id="b"><g id="c"><path class="d" d="M1282.6,380.91c-1.81-48.98-42.99-87.23-91.98-85.43-1.25,.05-2.47,.23-3.71,.33-13.84-44.34-56-75.78-104.66-73.99-19.05,.7-36.71,6.43-51.81,15.83-4.91-72.71-66.74-128.87-140.09-126.15-8.27,.31-16.33,1.38-24.14,3.09C829,43.95,753.65-2.99,668.52,.15c-78.04,2.88-144.78,47.14-179.92,110.89-25.67-20.14-58.3-31.67-93.45-30.37-68.74,2.54-124.34,53.2-135.6,118.39-14.72-5.12-30.6-7.67-47.12-7.06-62.88,2.32-113.56,49.26-122.77,109.23-.78,0-1.55-.06-2.34-.03C37.28,303.04-1.78,345.09,.06,395.12c1.85,50.04,43.9,89.1,93.93,87.26,10.35-.38,20.19-2.56,29.33-6.1,21.24,44.85,67.69,75.1,120.42,73.16,47.04-1.74,87.19-28.67,108.01-67.32,26.38,34.74,68.67,56.54,115.57,54.81,40.03-1.48,75.45-19.8,99.74-47.88,24.84,47.84,75.64,79.7,133.09,77.58,57.96-2.13,106.62-38.29,127.56-88.54,29.18,47.75,82.57,78.79,142.47,76.58,36.39-1.34,69.47-14.76,95.58-36.22,18.08,12.49,40.2,19.47,63.85,18.6,44.37-1.64,81.3-30.43,95.47-69.79,34.77-13.07,58.95-47.17,57.51-86.33Z"/></g></g></svg>