<svg xmlns="http://www.w3.org/2000/svg" width="27.907" height="27.914" viewBox="0 0 27.907 27.914"><path d="M30.1,18.453a3.591,3.591,0,0,1,2.3-3.35,14.234,14.234,0,0,0-1.722-4.15,3.639,3.639,0,0,1-1.461.312,3.583,3.583,0,0,1-3.278-5.044A14.191,14.191,0,0,0,21.8,4.5a3.588,3.588,0,0,1-6.7,0,14.234,14.234,0,0,0-4.15,1.722,3.583,3.583,0,0,1-3.278,5.044,3.521,3.521,0,0,1-1.461-.312A14.549,14.549,0,0,0,4.5,15.11a3.59,3.59,0,0,1,.007,6.7,14.234,14.234,0,0,0,1.722,4.15,3.585,3.585,0,0,1,4.731,4.731,14.317,14.317,0,0,0,4.15,1.722,3.581,3.581,0,0,1,6.686,0,14.234,14.234,0,0,0,4.15-1.722,3.588,3.588,0,0,1,4.731-4.731,14.317,14.317,0,0,0,1.722-4.15A3.608,3.608,0,0,1,30.1,18.453ZM18.519,24.26a5.814,5.814,0,1,1,5.814-5.814A5.812,5.812,0,0,1,18.519,24.26Z" transform="translate(-4.5 -4.5)" fill="#9aeba3"/></svg>