<svg xmlns="http://www.w3.org/2000/svg" width="31.078" height="42.889" viewBox="0 0 31.078 42.889"><path d="M28.87,38.429H22.417a2.054,2.054,0,0,0-2.038-2.059H18.341V32.081h3.227a2.054,2.054,0,0,0,2.038-2.059v-1.2a2.065,2.065,0,0,0-.028-.325A15.323,15.323,0,0,0,15.539,0,15.325,15.325,0,0,0,8.491,29.041v.981a2.055,2.055,0,0,0,2.038,2.059H14.1v4.289H12.227a2.054,2.054,0,0,0-2.038,2.059H3.906a2.054,2.054,0,0,0-2.038,2.059v.343a2.054,2.054,0,0,0,2.038,2.059H28.87a2.055,2.055,0,0,0,2.038-2.059v-.343A2.055,2.055,0,0,0,28.87,38.429ZM5.265,15.843A10.359,10.359,0,1,1,15.624,26.2,10.356,10.356,0,0,1,5.265,15.843Z" fill="#fff"/><path d="M345.968,369.42a6.752,6.752,0,1,0,6.878,6.75A6.815,6.815,0,0,0,345.968,369.42Zm-2.123,6.862a2.23,2.23,0,1,1,2.208-2.23A2.219,2.219,0,0,1,343.845,376.282Z" transform="translate(-330.429 -359.984)" fill="#fff"/></svg>