<svg xmlns="http://www.w3.org/2000/svg" width="17.869" height="27.914" viewBox="0 0 17.869 27.914"><path d="M8.934,0a17.867,17.867,0,0,1,6.157.972c1.713.6,2.777,1.528,2.777,2.592v.046h0v5.37h0v.046h0a1.847,1.847,0,0,1-.416,1.111,1.664,1.664,0,0,1,.416,1.112h0v5.416h0a1.664,1.664,0,0,1-.416,1.112,1.847,1.847,0,0,1,.416,1.111h0V24.3h0v.046c0,1.065-1.065,1.99-2.777,2.592a17.871,17.871,0,0,1-6.157.972,17.867,17.867,0,0,1-6.157-.972C1.065,26.341,0,25.415,0,24.35V24.3H0V18.888H0a1.845,1.845,0,0,1,.416-1.111A1.663,1.663,0,0,1,0,16.666H0V11.25H0a1.663,1.663,0,0,1,.416-1.112A1.847,1.847,0,0,1,0,9.027H0V8.981H0V3.611H0V3.565C0,2.5,1.065,1.574,2.777.972A17.862,17.862,0,0,1,8.934,0Zm5.833,1.851A17.3,17.3,0,0,0,8.934.926,17.3,17.3,0,0,0,3.1,1.851C1.759,2.315.926,2.962.926,3.611S1.759,4.86,3.1,5.37a17.386,17.386,0,0,0,5.833.879,17.386,17.386,0,0,0,5.833-.879c1.342-.51,2.175-1.111,2.175-1.759s-.833-1.3-2.175-1.759h0ZM.833,6.759c.232,0,.417.324.417.694,0,.416-.185.694-.417.694-.185,0-.37-.277-.37-.694,0-.371.185-.694.37-.694ZM3.7,23.378c.231,0,.416.324.416.741,0,.37-.185.694-.416.694-.185,0-.37-.324-.37-.694,0-.417.185-.741.37-.741Zm-1.574-.51c.231,0,.37.325.37.694,0,.416-.139.741-.37.741-.185,0-.37-.325-.37-.741,0-.37.185-.694.37-.694Zm-1.3-.787c.232,0,.417.325.417.694s-.185.694-.417.694c-.185,0-.37-.324-.37-.694s.185-.694.37-.694ZM3.7,15.74c.231,0,.416.324.416.694,0,.416-.185.694-.416.694-.185,0-.37-.278-.37-.694,0-.37.185-.694.37-.694ZM2.13,15.23c.231,0,.37.325.37.695s-.139.694-.37.694c-.185,0-.37-.324-.37-.694s.185-.695.37-.695Zm-1.3-.786c.232,0,.417.278.417.694,0,.371-.185.694-.417.694-.185,0-.37-.324-.37-.694,0-.416.185-.694.37-.694ZM3.7,8.1c.231,0,.416.278.416.694,0,.371-.185.694-.416.694-.185,0-.37-.324-.37-.694,0-.417.185-.694.37-.694ZM2.13,7.592c.231,0,.37.278.37.694,0,.371-.139.694-.37.694-.185,0-.37-.324-.37-.694,0-.416.185-.694.37-.694ZM16.8,18.424a8.423,8.423,0,0,1-1.713.88,19.163,19.163,0,0,1-6.157.926A19.158,19.158,0,0,1,2.778,19.3a9.8,9.8,0,0,1-1.713-.88.892.892,0,0,0-.139.463h0v.046c0,.648.833,1.25,2.175,1.759a17.385,17.385,0,0,0,5.833.88,17.38,17.38,0,0,0,5.833-.88c1.342-.51,2.175-1.111,2.175-1.759v-.046h0a.893.893,0,0,0-.139-.463h0Zm0-7.639a6.545,6.545,0,0,1-1.713.833,17.869,17.869,0,0,1-6.157.973,17.865,17.865,0,0,1-6.157-.973,7.335,7.335,0,0,1-1.713-.833.785.785,0,0,0-.139.463h0c0,.647.833,1.3,2.175,1.759a17.31,17.31,0,0,0,5.833.926,17.31,17.31,0,0,0,5.833-.926c1.342-.462,2.175-1.111,2.175-1.759h0a.786.786,0,0,0-.139-.463h0Z" fill="#9aeba3" fill-rule="evenodd"/></svg>