<svg xmlns="http://www.w3.org/2000/svg" width="28.938" height="28.932" viewBox="0 0 28.938 28.932"><path d="M14.467,9.286A7.418,7.418,0,1,0,21.885,16.7,7.406,7.406,0,0,0,14.467,9.286Zm0,12.24A4.823,4.823,0,1,1,19.29,16.7a4.831,4.831,0,0,1-4.823,4.823ZM23.919,8.982a1.73,1.73,0,1,1-1.73-1.73A1.726,1.726,0,0,1,23.919,8.982Zm4.913,1.756a8.562,8.562,0,0,0-2.337-6.062,8.618,8.618,0,0,0-6.062-2.337C18.044,2.2,10.884,2.2,8.5,2.339A8.606,8.606,0,0,0,2.433,4.67,8.59,8.59,0,0,0,.1,10.732c-.136,2.389-.136,9.548,0,11.937a8.562,8.562,0,0,0,2.337,6.062A8.629,8.629,0,0,0,8.5,31.068c2.389.136,9.548.136,11.937,0a8.562,8.562,0,0,0,6.062-2.337,8.618,8.618,0,0,0,2.337-6.062c.136-2.389.136-9.542,0-11.93ZM25.746,25.232A4.882,4.882,0,0,1,23,27.982c-1.9.755-6.424.581-8.528.581s-6.63.168-8.528-.581a4.882,4.882,0,0,1-2.75-2.75c-.755-1.9-.581-6.424-.581-8.528s-.168-6.63.581-8.528a4.882,4.882,0,0,1,2.75-2.75c1.9-.755,6.424-.581,8.528-.581S21.1,4.676,23,5.425a4.882,4.882,0,0,1,2.75,2.75c.755,1.9.581,6.424.581,8.528S26.5,23.334,25.746,25.232Z" transform="translate(0.005 -2.238)" fill="#fff" opacity="0.5"/></svg>