<svg xmlns="http://www.w3.org/2000/svg" width="28.278" height="28.278" viewBox="0 0 28.278 28.278"><path d="M30.849,7.712V7.069a3.213,3.213,0,0,0-6.427,0v.643A1.285,1.285,0,0,0,23.136,9v5.141a1.285,1.285,0,0,0,1.285,1.285h6.427a1.285,1.285,0,0,0,1.285-1.285V9A1.285,1.285,0,0,0,30.849,7.712Zm-1.028,0H25.45V7.069a2.185,2.185,0,0,1,4.37,0v.643ZM26.9,17.995a10.611,10.611,0,0,1,.1,1.285,10.231,10.231,0,0,1-2.706,6.935,2.554,2.554,0,0,0-2.436-1.793H20.566V20.566A1.289,1.289,0,0,0,19.28,19.28H11.568V16.71h2.571a1.289,1.289,0,0,0,1.285-1.285V12.854h2.571a2.57,2.57,0,0,0,2.571-2.571V7.018a12.854,12.854,0,1,0,9,12.262c0-.437-.026-.861-.064-1.285H26.9ZM15.424,29.473a10.273,10.273,0,0,1-9-10.193,10.063,10.063,0,0,1,.27-2.3l6.157,6.157v1.285a2.57,2.57,0,0,0,2.571,2.571v2.481Z" transform="translate(-3.856 -3.856)" fill="#9aeba3"/></svg>