<svg xmlns="http://www.w3.org/2000/svg" width="35.623" height="28.932" viewBox="0 0 35.623 28.932"><path d="M31.961,10.591c.023.316.023.633.023.949,0,9.652-7.346,20.772-20.772,20.772A20.632,20.632,0,0,1,0,29.036a15.1,15.1,0,0,0,1.763.09,14.621,14.621,0,0,0,9.064-3.119A7.314,7.314,0,0,1,4,20.944a9.207,9.207,0,0,0,1.379.113A7.722,7.722,0,0,0,7.3,20.808a7.3,7.3,0,0,1-5.854-7.165v-.09a7.353,7.353,0,0,0,3.3.927,7.312,7.312,0,0,1-2.26-9.765,20.752,20.752,0,0,0,15.054,7.64,8.242,8.242,0,0,1-.181-1.673,7.308,7.308,0,0,1,12.635-5,14.374,14.374,0,0,0,4.634-1.763,7.281,7.281,0,0,1-3.21,4.023,14.636,14.636,0,0,0,4.2-1.13,15.694,15.694,0,0,1-3.662,3.775Z" transform="translate(0 -3.381)" fill="#fff" opacity="0.5"/></svg>