<svg xmlns="http://www.w3.org/2000/svg" width="29.257" height="29.257" viewBox="0 0 29.257 29.257"><path d="M31.783,7.846V7.181a3.325,3.325,0,0,0-6.649,0v.665a1.329,1.329,0,0,0-1.33,1.33v5.319a1.33,1.33,0,0,0,1.33,1.33h6.649a1.329,1.329,0,0,0,1.33-1.33V9.176A1.33,1.33,0,0,0,31.783,7.846Zm-1.064,0H26.2V7.181a2.261,2.261,0,0,1,4.522,0v.665ZM27.694,18.485a10.978,10.978,0,0,1,.1,1.33,10.585,10.585,0,0,1-2.8,7.175,2.642,2.642,0,0,0-2.52-1.855h-1.33v-3.99a1.334,1.334,0,0,0-1.33-1.33H11.835v-2.66h2.66a1.334,1.334,0,0,0,1.33-1.33v-2.66h2.66a2.659,2.659,0,0,0,2.66-2.66V7.128a13.3,13.3,0,1,0,9.309,12.687c0-.452-.027-.891-.066-1.33H27.694ZM15.825,30.36A10.629,10.629,0,0,1,6.516,19.814a10.412,10.412,0,0,1,.279-2.38l6.37,6.37v1.33a2.659,2.659,0,0,0,2.66,2.66V30.36Z" transform="translate(-3.856 -3.856)" fill="#9aeba3"/></svg>