<svg xmlns="http://www.w3.org/2000/svg" width="42.888" height="42.889" viewBox="0 0 42.888 42.889"><path d="M107.3,87.933A19.373,19.373,0,1,0,87.922,107.3,19.373,19.373,0,0,0,107.3,87.933Z" transform="translate(-66.478 -66.488)" fill="#ff9912"/><path d="M21.444,0A21.444,21.444,0,1,0,42.888,21.444,21.469,21.469,0,0,0,21.444,0Zm1.188,2.517c2.076.5,4.037,2.291,5.616,5.174a21.251,21.251,0,0,1,1.182,2.573,32.5,32.5,0,0,1-6.8.87Zm-2.376,8.617a32.516,32.516,0,0,1-6.8-.87A21.3,21.3,0,0,1,14.64,7.691c1.58-2.883,3.54-4.676,5.617-5.174Zm0,2.377v6.745h-8.7a32.571,32.571,0,0,1,1.15-7.725,35.447,35.447,0,0,0,7.548.98Zm0,9.121v6.746a35.428,35.428,0,0,0-7.548.98,32.572,32.572,0,0,1-1.15-7.726Zm0,9.123v8.616c-2.077-.5-4.037-2.291-5.617-5.174a21.2,21.2,0,0,1-1.181-2.573A32.578,32.578,0,0,1,20.256,31.755Zm2.376,0a32.557,32.557,0,0,1,6.8.869A21.251,21.251,0,0,1,28.248,35.2c-1.579,2.883-3.54,4.676-5.616,5.174Zm0-2.377V22.632h8.7a32.583,32.583,0,0,1-1.15,7.726A35.411,35.411,0,0,0,22.632,29.378Zm0-9.121V13.511a35.467,35.467,0,0,0,7.548-.98,32.587,32.587,0,0,1,1.15,7.725Zm7.7-13.706A17.559,17.559,0,0,0,28.4,3.689a19.128,19.128,0,0,1,6.188,3.952A5.656,5.656,0,0,1,31.7,9.557a23.722,23.722,0,0,0-1.37-3.006Zm-17.775,0a23.741,23.741,0,0,0-1.37,3.006A5.657,5.657,0,0,1,8.3,7.641,19.12,19.12,0,0,1,14.488,3.69a17.565,17.565,0,0,0-1.932,2.861Zm-2.115,5.275a34.987,34.987,0,0,0-1.26,8.431H2.413A18.974,18.974,0,0,1,6.651,9.427a9.107,9.107,0,0,0,3.79,2.4ZM9.181,22.633a35.02,35.02,0,0,0,1.26,8.431,9.1,9.1,0,0,0-3.79,2.4,18.973,18.973,0,0,1-4.237-10.83Zm2.007,10.7a23.683,23.683,0,0,0,1.37,3.006A17.559,17.559,0,0,0,14.489,39.2,19.132,19.132,0,0,1,8.3,35.248a5.661,5.661,0,0,1,2.887-1.916Zm19.144,3.006a23.583,23.583,0,0,0,1.37-3.006,5.661,5.661,0,0,1,2.887,1.916A19.126,19.126,0,0,1,28.4,39.2a17.559,17.559,0,0,0,1.932-2.862Zm2.116-5.275a35,35,0,0,0,1.26-8.431h6.768a18.975,18.975,0,0,1-4.237,10.83A9.1,9.1,0,0,0,32.447,31.064Zm1.26-10.807a35,35,0,0,0-1.26-8.431,9.107,9.107,0,0,0,3.791-2.4,18.973,18.973,0,0,1,4.237,10.83Z" fill="#fff"/></svg>