<svg id="Layer_2" data-name="Layer 2" xmlns="http://www.w3.org/2000/svg" width="121.332" height="167.441" viewBox="0 0 121.332 167.441">
  <g id="Layer_1" data-name="Layer 1">
    <circle id="Ellipse_48" data-name="Ellipse 48" cx="11.567" cy="11.567" r="11.567" transform="translate(40.289 44.492)" fill="#9aeba3"/>
    <path id="Path_180" data-name="Path 180" d="M112.712,150.029H87.517a8.02,8.02,0,0,0-7.955-8.037H71.605V125.245H84.2a8.02,8.02,0,0,0,7.955-8.037v-4.687a8.062,8.062,0,0,0-.109-1.268,59.771,59.771,0,0,0,29.282-51.309C121.332,26.838,94.17,0,60.665,0S0,26.838,0,59.945a59.86,59.86,0,0,0,33.15,53.434v3.828a8.021,8.021,0,0,0,7.956,8.037H55.03v16.745H47.737a8.021,8.021,0,0,0-7.956,8.037H15.25a8.02,8.02,0,0,0-7.955,8.037v1.34a8.02,8.02,0,0,0,7.955,8.037h97.463a8.021,8.021,0,0,0,7.956-8.037v-1.34A8.022,8.022,0,0,0,112.712,150.029ZM20.554,61.851A40.444,40.444,0,1,1,61,102.269,40.431,40.431,0,0,1,20.554,61.851Z" fill="#45c4b0"/>
    <path id="Path_181" data-name="Path 181" d="M365.942,369.42a26.359,26.359,0,1,0,26.852,26.352A26.606,26.606,0,0,0,365.942,369.42Zm-8.288,26.791a8.708,8.708,0,1,1,8.62-8.707A8.663,8.663,0,0,1,357.654,396.211Z" transform="translate(-305.277 -332.582)" fill="#45c4b0"/>
  </g>
</svg>
