<svg xmlns="http://www.w3.org/2000/svg" width="25.849" height="27.914" viewBox="0 0 25.849 27.914"><g transform="translate(0.002 0.001)"><g transform="translate(-0.002 -0.001)"><path d="M66.388,89.952,67.52,90l1.638-6.227L66.877,83.7l-.489,6.257Zm5.484-1.262,1.014-.506L71.77,83.352l-2.034,1.034ZM61.813,86.038l.646.49,2.2-2.985-1.306-.975Zm15.02-1.177.742-.879-3.567-2.688L72.529,83.07l4.3,1.791ZM57.05,82.066l.341.915,5.178-2.126-.7-1.833L57.05,82.068Zm22-2.641.418-.978L74.7,78.086l-.823,1.967,5.174-.628ZM58.283,74.26l-.29.7,3.936,2.074.569-1.407Zm22.305-.243-.1-.9L73.592,75.03l.231,1.807,6.765-2.82Zm-3.72-3.932-.531-.692L71.11,72.906,72.2,74.284Zm-17.13-1.844-.7.506,3.139,5,1.394-1.037-3.834-4.466ZM64.4,66.529l-.734.243,1.283,5,1.471-.505L64.4,66.529Zm6.917-1.567-1.057-.251-1.932,6,2.132.483Z" transform="translate(-55.895 -63.4)" fill="#9aeba3" fill-rule="evenodd"/><path d="M243.166,286A8.166,8.166,0,1,1,235,294.166,8.169,8.169,0,0,1,243.166,286Z" transform="translate(-230.241 -280.209)" fill="#9aeba3" fill-rule="evenodd"/><path d="M350.444,425.564a.7.7,0,1,1-.7.7.7.7,0,0,1,.7-.7Zm4-1.632a.654.654,0,1,1-.654.654A.654.654,0,0,1,354.446,423.932Zm-6.125-1.683a1.286,1.286,0,1,1-1.286,1.286A1.286,1.286,0,0,1,348.321,422.249Zm4.033-1.553a.935.935,0,1,1-.935.935A.935.935,0,0,1,352.354,420.7Zm3.449-1.331a1.16,1.16,0,1,1-1.16,1.16A1.16,1.16,0,0,1,355.8,419.365Zm-10.012.4a.7.7,0,1,1-.7.7A.7.7,0,0,1,345.791,419.765Zm2.5-3.875a1.451,1.451,0,1,1-1.451,1.451A1.451,1.451,0,0,1,348.291,415.89Zm4.359,1.4a.686.686,0,1,1-.687.687A.686.686,0,0,1,352.65,417.291Z" transform="translate(-338.102 -407.469)" fill="#9aeba3" fill-rule="evenodd"/><path d="M11.2,25.668c.98.044,1.753.583,1.725,1.2s-.846,1.085-1.826,1.041-1.753-.582-1.725-1.2S10.218,25.624,11.2,25.668ZM16.3,24.4c.743-.278,1.476-.157,1.636.27s-.314,1-1.057,1.277-1.476.157-1.636-.27S15.553,24.673,16.3,24.4ZM6.459,22.186c.731.432,1.117,1.134.861,1.567s-1.057.435-1.788,0-1.117-1.134-.861-1.567,1.057-.435,1.788,0ZM20.768,20.53c.575-.557,1.317-.725,1.657-.375S22.574,21.243,22,21.8s-1.318.725-1.658.375-.149-1.088.425-1.645ZM.147,19.109c-.315-.926-.115-1.832.445-2.022s1.272.4,1.586,1.331.115,1.832-.445,2.023-1.272-.4-1.587-1.332Zm24.077-3.393c-.168.837-.649,1.447-1.074,1.362s-.634-.834-.466-1.671.649-1.447,1.074-1.362S24.392,14.88,24.224,15.716ZM1.1,10.672c.3-.749.948-1.2,1.448-1s.662.971.362,1.72-.948,1.2-1.448,1S.8,11.421,1.1,10.672Zm24.719-.926c.135.913-.172,1.716-.686,1.792s-1.042-.6-1.177-1.516.172-1.716.686-1.792,1.041.6,1.177,1.516ZM21.592,5.258c.687.542.978,1.32.65,1.736s-1.153.314-1.84-.228-.978-1.32-.65-1.736S20.9,4.716,21.592,5.258ZM2.9,3.806c.795-.477,1.669-.484,1.95-.015S4.708,5.026,3.913,5.5s-1.669.484-1.95.015S2.1,4.283,2.9,3.806ZM7.871,2.018c.675-.194,1.325,0,1.45.436S9,3.4,8.324,3.593s-1.325,0-1.45-.436.322-.945,1-1.139ZM15.082.086c.947.239,1.6.893,1.456,1.461s-1.028.836-1.975.6-1.6-.893-1.456-1.461S14.135-.152,15.082.086Z" transform="translate(0.002 0.001)" fill="#9aeba3" fill-rule="evenodd"/></g></g></svg>