<?xml version="1.0" encoding="UTF-8"?><svg xmlns="http://www.w3.org/2000/svg" viewBox="0 0 801 801"><defs><style>.d{fill:#012030;stroke:#000;stroke-miterlimit:10;}.e{fill:#603913;}.f{fill:#3c2415;}.g{fill:#fdb757;}</style></defs><g id="a"/><g id="b"><g id="c"><path class="g" d="M792.17,400.5c0,50.35-9.5,98.52-26.84,142.74-20.73,52.95-52.66,100.29-92.88,139.08-70.45,68.02-166.33,109.85-271.95,109.85-78.7,0-151.99-23.23-213.39-63.19-35.94-23.39-67.8-52.51-94.29-86.09C43.38,580.2,12.68,502.04,9.18,416.87c-.24-5.42-.34-10.88-.34-16.37,0-38.13,5.46-74.98,15.63-109.83C71.94,127.82,222.33,8.83,400.5,8.83c95.14,0,182.36,33.93,250.21,90.36,43.92,36.5,79.73,82.41,104.32,134.67,23.83,50.57,37.14,107.06,37.14,166.64Z"/><path class="d" d="M400.5,800.5c-77.71,0-153.07-22.32-217.93-64.54-36.73-23.9-69.12-53.48-96.29-87.92C33.87,581.6,4.33,501.78,.85,417.22c-.23-5.36-.35-10.99-.35-16.72,0-38.13,5.37-75.87,15.96-112.16,23.73-81.39,74.14-154.65,141.96-206.28C228.49,28.7,312.2,.5,400.5,.5c93.23,0,183.99,32.77,255.54,92.28,44.93,37.34,81.77,84.9,106.53,137.53,25.17,53.42,37.93,110.68,37.93,170.19,0,50.33-9.22,99.38-27.41,145.78-20.8,53.14-53.6,102.25-94.85,142.03-74.93,72.34-173.56,112.18-277.74,112.18Zm0-783.33c-84.62,0-164.84,27.02-231.98,78.15-65,49.49-113.32,119.7-136.05,197.69-10.15,34.78-15.3,70.95-15.3,107.5,0,5.48,.11,10.87,.34,16.01,3.33,81.05,31.64,157.54,81.86,221.21,26.04,33.01,57.09,61.36,92.29,84.27,62.15,40.46,134.37,61.84,208.84,61.84,99.83,0,194.36-38.18,266.17-107.51,39.54-38.13,70.97-85.2,90.9-136.12,17.43-44.46,26.26-91.46,26.26-139.7,0-57.04-12.23-111.91-36.34-163.09-23.73-50.44-59.04-96.02-102.11-131.81-68.57-57.03-155.54-88.43-244.89-88.43Z"/><circle class="e" cx="480.5" cy="203.83" r="45"/><path class="f" d="M480.5,257.17c-29.41,0-53.33-23.93-53.33-53.33s23.93-53.33,53.33-53.33,53.33,23.93,53.33,53.33-23.93,53.33-53.33,53.33Zm0-90c-20.22,0-36.67,16.45-36.67,36.67s16.45,36.67,36.67,36.67,36.67-16.45,36.67-36.67-16.45-36.67-36.67-36.67Z"/><circle class="e" cx="290.5" cy="400.5" r="58.33"/><path class="f" d="M290.5,467.17c-36.76,0-66.67-29.91-66.67-66.67s29.91-66.67,66.67-66.67,66.67,29.91,66.67,66.67-29.91,66.67-66.67,66.67Zm0-116.67c-27.57,0-50,22.43-50,50s22.43,50,50,50,50-22.43,50-50-22.43-50-50-50Z"/><circle class="e" cx="290.32" cy="117.28" r="65.28"/><path class="f" d="M290.31,190.89c-40.59,0-73.61-33.02-73.61-73.61s33.02-73.61,73.61-73.61,73.61,33.02,73.61,73.61-33.02,73.61-73.61,73.61Zm0-130.56c-31.4,0-56.94,25.55-56.94,56.95s25.55,56.94,56.94,56.94,56.94-25.55,56.94-56.94-25.55-56.95-56.94-56.95Z"/><circle class="e" cx="572.76" cy="438.45" r="63.46" transform="translate(-142.27 533.42) rotate(-45)"/><path class="f" d="M572.76,510.25c-39.59,0-71.8-32.21-71.8-71.8s32.21-71.8,71.8-71.8,71.8,32.21,71.8,71.8-32.21,71.8-71.8,71.8Zm0-126.93c-30.4,0-55.13,24.73-55.13,55.13s24.73,55.13,55.13,55.13,55.13-24.73,55.13-55.13-24.73-55.13-55.13-55.13Z"/><circle class="e" cx="422.26" cy="630.79" r="43.52" transform="translate(-254.83 287.65) rotate(-29.33)"/><path class="f" d="M422.26,682.64c-28.59,0-51.85-23.26-51.85-51.85s23.26-51.85,51.85-51.85,51.85,23.26,51.85,51.85-23.26,51.85-51.85,51.85Zm0-87.04c-19.4,0-35.19,15.78-35.19,35.18s15.78,35.19,35.19,35.19,35.19-15.78,35.19-35.19-15.78-35.18-35.19-35.18Z"/><path class="e" d="M112.19,356.98c0,38.06-30.84,68.9-68.9,68.9-12.42,0-24.06-3.28-34.11-9.01-.24-5.42-.34-10.88-.34-16.37,0-38.13,5.46-74.98,15.63-109.83,5.98-1.69,12.29-2.59,18.82-2.59,38.06,0,68.9,30.84,68.9,68.9Z"/><path class="f" d="M43.29,434.22c-13.42,0-26.64-3.49-38.24-10.11l-4-2.28-.2-4.6c-.23-5.38-.35-11.01-.35-16.74,0-38.13,5.37-75.87,15.96-112.16l1.29-4.44,4.44-1.25c6.84-1.93,13.94-2.91,21.08-2.91,42.59,0,77.24,34.65,77.24,77.24s-34.65,77.24-77.24,77.24Zm-25.96-22.49c8.06,3.82,16.95,5.82,25.96,5.82,33.4,0,60.57-27.17,60.57-60.57s-27.17-60.57-60.57-60.57c-4.09,0-8.16,.41-12.14,1.21-9.28,33.36-13.98,67.94-13.98,102.88,0,3.81,.06,7.57,.16,11.23Z"/><path class="e" d="M220.99,670.68c0,24.95-13.64,46.73-33.87,58.3-35.94-23.39-67.8-52.51-94.29-86.09,10.57-23.17,33.94-39.29,61.07-39.29,37.04,0,67.09,30.05,67.09,67.09Z"/><path class="f" d="M186.83,738.73l-4.26-2.77c-36.73-23.9-69.12-53.48-96.29-87.92l-3.15-3.99,2.11-4.63c12.24-26.83,39.19-44.17,68.65-44.17,41.59,0,75.42,33.83,75.42,75.42,0,27-14.59,52.11-38.07,65.53l-4.42,2.52Zm-84.15-96.87c24.23,29.86,52.63,55.8,84.55,77.2,15.8-10.92,25.42-29.03,25.42-48.38,0-32.4-26.36-58.76-58.76-58.76-21.27,0-40.86,11.6-51.21,29.94Z"/><path class="e" d="M765.33,543.24c-20.73,52.95-52.66,100.29-92.88,139.08-30.84-12.8-52.55-43.23-52.55-78.73,0-47.07,38.15-85.22,85.22-85.22,23.5,0,44.77,9.5,60.2,24.88Z"/><path class="f" d="M674.31,692.11l-5.05-2.09c-35.04-14.54-57.69-48.47-57.69-86.43,0-51.59,41.97-93.56,93.56-93.56,24.94,0,48.41,9.7,66.08,27.31l3.87,3.86-1.99,5.08c-20.8,53.14-53.6,102.26-94.85,142.04l-3.93,3.79Zm30.82-165.41c-42.4,0-76.89,34.49-76.89,76.89,0,29.38,16.5,55.81,42.47,68.78,36.3-36.07,65.47-79.75,84.76-126.92-13.98-12.13-31.66-18.75-50.34-18.75Z"/><path class="e" d="M755.03,233.86c-14.02,10.15-31.26,16.14-49.9,16.14-47.07,0-85.22-38.15-85.22-85.22,0-26.38,11.99-49.97,30.81-65.59,43.92,36.5,79.73,82.41,104.32,134.67Z"/><path class="f" d="M705.13,258.33c-51.59,0-93.56-41.97-93.56-93.56,0-27.93,12.33-54.17,33.82-72l5.33-4.42,5.32,4.42c44.93,37.35,81.77,84.9,106.53,137.53l2.94,6.25-5.59,4.05c-16.01,11.59-34.95,17.72-54.79,17.72Zm-54.23-148.07c-14.48,14.38-22.66,33.88-22.66,54.51,0,42.4,34.49,76.89,76.89,76.89,13.97,0,27.4-3.7,39.23-10.75-22.59-45.71-54.72-87.18-93.47-120.65Z"/></g></g></svg>