<?xml version="1.0" encoding="UTF-8"?><svg xmlns="http://www.w3.org/2000/svg" viewBox="0 0 757.23 661.97"><defs><style>.d{stroke:#000;stroke-miterlimit:10;}.d,.e{fill:#012030;}.f{fill:#9aeba3;}</style></defs><g id="a"/><g id="b"><g id="c"><path class="f" d="M3.16,626.96L358.4,11.67c8.98-15.56,31.44-15.56,40.42,0l355.24,615.29c8.98,15.56-2.25,35.01-20.21,35.01H23.37c-17.97,0-29.19-19.45-20.21-35.01Z"/><path class="f" d="M378.61,20.42c1.68,0,2.32,1.1,2.53,1.46l355.24,615.29c.21,.36,.84,1.46,0,2.92s-2.11,1.46-2.53,1.46H23.37c-.42,0-1.68,0-2.53-1.46-.84-1.46-.21-2.56,0-2.92L376.09,21.88c.21-.36,.84-1.46,2.53-1.46M378.61,0c-7.86,0-15.72,3.89-20.21,11.67L3.16,626.96c-8.98,15.56,2.25,35.01,20.21,35.01H733.85c17.97,0,29.2-19.45,20.21-35.01L398.83,11.67C394.33,3.89,386.47,0,378.61,0h0Z"/><circle class="d" cx="378.58" cy="542.94" r="42.59" transform="translate(-236.81 786.65) rotate(-76.72)"/><path class="e" d="M378.58,198.1c-23.53,0-42.59,19.07-42.59,42.59,0,2.26,.18,4.48,.52,6.65l15.82,202.24c0,14.5,11.76,26.26,26.26,26.26s26.26-11.76,26.26-26.26l15.82-202.24c.34-2.17,.52-4.39,.52-6.65,0-23.53-19.07-42.59-42.59-42.59Z"/></g></g></svg>