<?xml version="1.0" encoding="UTF-8"?><svg xmlns="http://www.w3.org/2000/svg" viewBox="0 0 1974.13 1974.12"><defs><style>.d{fill:#9aeba3;}</style></defs><g id="a"/><g id="b"><g id="c"><g><path class="d" d="M984.69,772.88l-259.84-450.07c-36.1-62.52-126.34-62.52-162.42,0l-259.86,450.07c-36.08,62.52,9.04,140.64,81.22,140.64H903.49c72.18,0,117.28-78.13,81.2-140.64Zm-380.19-351.43c0-21.62,17.53-39.13,39.13-39.13s39.13,17.51,39.13,39.13v255.75c0,21.6-17.51,39.13-39.13,39.13s-39.13-17.53-39.13-39.13v-255.75Zm39.13,440.81c-26.48,0-47.95-21.47-47.95-47.95s21.47-47.95,47.95-47.95,47.95,21.47,47.95,47.95-21.47,47.95-47.95,47.95Z"/><path class="d" d="M188.29,188.33c-251.04,251.04-251.08,659.55,0,910.63,210.6,210.6,531.97,244.55,778.25,101.87,35.14-20.34,68.79-44.32,100.34-71.9l.02-.02,165.57,165.57c-5.95,26.53,1.33,55.42,21.98,76.07l579.51,579.51c32.06,32.06,84.05,32.07,116.11,0,32.06-32.06,32.06-84.05,0-116.11l-579.51-579.51c-20.65-20.65-49.54-27.92-76.07-21.98l-165.57-165.57c27.61-31.58,51.54-65.19,71.92-100.36,142.68-246.28,108.73-567.65-101.87-778.25-251.08-251.08-659.59-251.04-910.67,.04Zm942.1,724.55c-24.56,44.57-55.73,86.41-93.44,124.11-37.75,37.75-79.59,68.92-124.11,93.44-211.43,116.84-483.39,85.66-662.53-93.48-216.89-216.89-216.85-569.76,0-786.6,216.89-216.89,569.75-216.93,786.64-.04,179.18,179.18,210.32,451.18,93.44,662.57Z"/></g></g></g></svg>