<?xml version="1.0" encoding="UTF-8"?><svg xmlns="http://www.w3.org/2000/svg" viewBox="0 0 949 949"><defs><style>.d{fill:#45c4b0;}</style></defs><g id="a"/><g id="b"><g id="c"><path class="d" d="M474.5,0C212.44,0,0,212.44,0,474.5s212.44,474.5,474.5,474.5,474.5-212.44,474.5-474.5S736.56,0,474.5,0Zm195.49,257c52.74,0,95.49,42.23,95.49,94.32s-42.75,94.32-95.49,94.32-95.49-42.23-95.49-94.32,42.75-94.32,95.49-94.32Zm-200.94,39.23c52.74,0,95.49,42.23,95.49,94.32s-42.75,94.32-95.49,94.32-95.49-42.23-95.49-94.32,42.75-94.32,95.49-94.32Zm-202.35-38.58c52.74,0,95.49,42.23,95.49,94.32s-42.75,94.32-95.49,94.32-95.49-42.23-95.49-94.32,42.75-94.32,95.49-94.32ZM77.06,624.4c0-87.17,50.17-161.68,121-191.64,17.59,16.6,41.89,26.87,68.75,26.87s51.48-10.42,69.1-27.22c20.28,8.46,38.87,20.58,55.11,35.58-35.41,15.93-65.65,42.24-87.61,76.39-15.63,24.29-26.27,51.44-31.58,80.02H77.06Zm582.34,46.6H278.7v-9.13c0-40.72,11.66-79.88,33.71-113.24,21.64-32.74,51.72-57.72,86.99-72.23l5.85-2.41,4.59,4.21c15.64,14.37,36.47,22.28,58.65,22.28s43.27-8.01,58.95-22.56l4.56-4.24,5.86,2.38c35.49,14.4,65.78,39.36,87.58,72.19,22.22,33.44,33.96,72.73,33.96,113.62v9.13Zm6.15-46.6h-.69c-5.34-28.74-16.07-56.03-31.85-80.43-22.37-34.61-53.23-61.11-89.36-76.86v-.31c.9,.4,1.81,.79,2.71,1.19,16.18-15.1,34.73-27.32,54.98-35.89,17.59,16.6,41.9,26.87,68.75,26.87s51.48-10.42,69.1-27.22c71.28,29.73,121.85,104.47,121.85,191.99h-195.6c.04,.22,.08,.44,.12,.66Z"/></g></g></svg>