<?xml version="1.0" encoding="UTF-8"?><svg xmlns="http://www.w3.org/2000/svg" viewBox="0 0 904.12 528.15"><defs><style>.d{fill:#45c4b0;}</style></defs><g id="a"/><g id="b"><g id="c"><path class="d" d="M904.12,277.48c0-72.73-58.96-131.69-131.7-131.69-12.39,0-24.37,1.75-35.74,4.95-15.8-37.38-52.81-63.61-95.95-63.61-14.59,0-28.48,3.01-41.08,8.43C577.63,39.61,523.16,0,459.41,0c-59.82,0-111.5,34.87-135.84,85.39-21.24-15.84-47.57-25.22-76.1-25.22-57.8,0-106.59,38.5-122.18,91.26C54.91,158.61,0,218.06,0,290.34c0,77.13,62.53,139.66,139.66,139.66,16.01,0,31.37-2.73,45.69-7.69,22.48,46.37,69.99,78.33,124.97,78.33,27.04,0,52.27-7.76,73.61-21.14,27.85,29.91,67.56,48.64,111.65,48.64,39.36,0,75.23-14.91,102.28-39.37,17.93,7.64,37.65,11.87,58.37,11.87,62.62,0,116.18-38.63,138.25-93.34,62.22-10.51,109.62-64.61,109.62-129.83Z"/></g></g></svg>