<?xml version="1.0" encoding="UTF-8"?><svg xmlns="http://www.w3.org/2000/svg" viewBox="0 0 1200.23 614.69"><defs><style>.d{fill:#ff9912;}</style></defs><g id="a"/><g id="b"><g id="c"><path class="d" d="M1199.87,339.23c-5.1-66.45-63.09-116.18-129.53-111.09-14.43,1.11-28.07,4.71-40.54,10.35-1.32-1.78-2.64-3.55-4.02-5.28-.03-.55-.04-1.1-.08-1.65-5.09-66.45-63.08-116.18-129.53-111.09-21.37,1.64-40.99,8.77-57.64,19.87-15.48-45.09-59.89-75.85-109.63-72.04-31.59,2.42-58.92,18.3-76.83,41.58C629.68,41.58,562.95-5.26,488.09,.47c-61.38,4.7-111.95,43.52-134.66,96.43-17.08-7.16-36.05-10.52-55.79-9.01-66.44,5.09-116.17,63.08-111.09,129.53,.13,1.63,.31,3.24,.49,4.84-12.76-2.2-25.98-2.89-39.48-1.86C59.59,227.16-6.26,303.95,.47,391.92c6.75,87.98,83.53,153.83,171.51,147.09,1.85-.14,3.68-.36,5.51-.56,20.76,29.99,56.42,48.48,95.41,45.49,28.02-2.15,52.65-15.01,70.22-34.24,50.69,42.37,117.3,65.81,188.38,60.36,48.18-3.69,92.29-20.23,129.33-45.91,23.75,33.19,63.76,53.52,107.42,50.18,41.02-3.14,75.65-26.46,94.97-59.48,22.55,16.81,51.02,25.88,81.27,23.56,60.42-4.63,107.01-53.01,111.13-111.71,10.65,2.15,21.77,2.92,33.14,2.05,66.45-5.09,116.18-63.08,111.09-129.53Z"/></g></g></svg>